<svg xmlns="http://www.w3.org/2000/svg" version="1.1" xmlns:xlink="http://www.w3.org/1999/xlink" xmlns:svgjs="http://svgjs.com/svgjs" width="1440" height="560" preserveAspectRatio="none" viewBox="0 0 1440 560"><g mask="url(&quot;#SvgjsMask1167&quot;)" fill="none"><rect width="1440" height="560" x="0" y="0" fill="rgba(24, 106, 59, 1)"></rect><path d="M0,396.845C71.893,380.731,106.393,301.293,164.605,256.131C216.079,216.196,296.854,207.153,321.983,147.045C347.107,86.947,308.371,20.649,289.057,-41.56C272.564,-94.683,249.691,-143.143,217.751,-188.682C182.515,-238.921,145.794,-287.049,93.903,-319.804C28.806,-360.895,-41.463,-412.042,-117.548,-400.333C-194.894,-388.431,-263.218,-328.77,-299.251,-259.303C-333.06,-194.124,-299.79,-116.883,-302.631,-43.512C-305.102,20.301,-328.231,81.346,-314.859,143.791C-299.183,216.993,-278.358,295.437,-220.006,342.335C-159.899,390.643,-75.247,413.71,0,396.845" fill="#124d2b"></path><path d="M1440 1023.636C1548.221 1032.343 1656.234 1093.042 1757.644 1054.2640000000001 1864.8029999999999 1013.288 1951.0720000000001 919.307 1992.556 812.344 2033.173 707.615 2005.4279999999999 591.719 1979.413 482.444 1955.321 381.245 1930.165 270.374 1848.26 206.24 1769.592 144.64 1658.132 168.55 1559.353 153.522 1475.651 140.788 1396.729 120.26600000000002 1312.179 124.68200000000002 1205.762 130.24 1083.752 111.43799999999999 1004.351 182.50799999999998 924.349 254.11700000000002 910.276 376.55 910.837 483.918 911.353 582.645 965.706 668.0699999999999 1007.354 757.583 1048.684 846.414 1070.132 954.3399999999999 1153.59 1005.662 1236.758 1056.806 1342.679 1015.806 1440 1023.636" fill="#1f874b"></path></g><defs><mask id="SvgjsMask1167"><rect width="1440" height="560" fill="#ffffff"></rect></mask></defs></svg>